<?xml version="1.0" encoding="UTF-8"?>
<svg width="194px" height="33px" viewBox="0 0 194 33" version="1.1" xmlns="http://www.w3.org/2000/svg" xmlns:xlink="http://www.w3.org/1999/xlink">
    <title>gtn</title>
    <g id="Page-1" stroke="none" stroke-width="1" fill="none" fill-rule="evenodd">
        <g id="gtn" transform="translate(0.000000, 0.594704)">
            <path d="M38.41246,16.6512965 C38.41246,9.77335648 32.83694,4.19783648 25.959,4.19783648 C19.08106,4.19783648 13.50554,9.77335648 13.50554,16.6512965 C13.50554,23.5292365 19.08106,29.1047565 25.959,29.1047565 C32.83694,29.1047565 38.41246,23.5292365 38.41246,16.6512965 Z" id="Stroke-1" stroke="#000000" stroke-width="0.79701"></path>
            <g id="Group-4" transform="translate(0.000000, 13.898296)">
                <line x1="0.2385" y1="2.753" x2="6.37221" y2="2.753" id="Stroke-2" stroke="#000000" stroke-width="1.19553"></line>
                <path d="M12.11075,2.753 C10.41041,2.43421 7.64743,1.47778 5.73461,0.36195 L5.73461,5.14405 C7.64743,4.02822 10.41041,3.07179 12.11075,2.753" id="Fill-3" fill="#000000"></path>
            </g>
            <path d="M89.43683,16.6512965 C89.43683,9.77335648 83.86131,4.19783648 76.98335,4.19783648 C70.10541,4.19783648 64.52988,9.77335648 64.52988,16.6512965 C64.52988,23.5292365 70.10541,29.1047565 76.98335,29.1047565 C83.86131,29.1047565 89.43683,23.5292365 89.43683,16.6512965 Z" id="Stroke-5" stroke="#000000" stroke-width="0.79701"></path>
            <path d="M140.4612,16.6512965 C140.4612,9.77335648 134.88567,4.19783648 128.00772,4.19783648 C121.12976,4.19783648 115.55425,9.77335648 115.55425,16.6512965 C115.55425,23.5292365 121.12976,29.1047565 128.00772,29.1047565 C134.88567,29.1047565 140.4612,23.5292365 140.4612,16.6512965 Z" id="Stroke-6" stroke="#000000" stroke-width="0.79701"></path>
            <g id="Group-9" transform="translate(166.000000, 3.898296)">
                <path d="M25.48555,12.753 C25.48555,5.87506 19.91003,0.29954 13.03207,0.29954 C6.15413,0.29954 0.5786,5.87506 0.5786,12.753 C0.5786,19.63094 6.15413,25.20646 13.03207,25.20646 C19.91003,25.20646 25.48555,19.63094 25.48555,12.753 Z" id="Stroke-7" stroke="#000000" stroke-width="3.5866"></path>
                <path d="M25.48555,12.753 C25.48555,5.87506 19.91003,0.29954 13.03207,0.29954 C6.15413,0.29954 0.5786,5.87506 0.5786,12.753 C0.5786,19.63094 6.15413,25.20646 13.03207,25.20646 C19.91003,25.20646 25.48555,19.63094 25.48555,12.753 Z" id="Stroke-8" stroke="#FFFFFF" stroke-width="1.99255"></path>
            </g>
            <line x1="38.81097" y1="16.6512965" x2="57.39655" y2="16.6512965" id="Stroke-11" stroke="#000000" stroke-width="1.19553"></line>
            <path d="M63.13509,16.6512965 C61.43475,16.3325065 58.67177,15.3760765 56.75895,14.2602465 L56.75895,19.0423465 C58.67177,17.9265165 61.43475,16.9700865 63.13509,16.6512965" id="Fill-12" fill="#000000"></path>
            <text id="G" font-family="STIXGeneral-Regular, STIXGeneral" font-size="9.9626" font-weight="normal" fill="#000000">
                <tspan x="47.562" y="11">G</tspan>
            </text>
            <line x1="89.83533" y1="16.6512965" x2="108.42091" y2="16.6512965" id="Stroke-15" stroke="#000000" stroke-width="1.19553"></line>
            <path d="M114.15945,16.6512965 C112.45911,16.3325065 109.69613,15.3760765 107.78331,14.2602465 L107.78331,19.0423465 C109.69613,17.9265165 112.45911,16.9700865 114.15945,16.6512965" id="Fill-16" fill="#000000"></path>
            <text id="T" font-family="STIXGeneral-Regular, STIXGeneral" font-size="9.9626" font-weight="normal" fill="#000000">
                <tspan x="98.897" y="11">T</tspan>
            </text>
            <line x1="140.8597" y1="16.6512965" x2="159.14638" y2="16.6512965" id="Stroke-19" stroke="#000000" stroke-width="1.19553"></line>
            <path d="M164.88492,16.6512965 C163.18458,16.3325065 160.4216,15.3760765 158.50878,14.2602465 L158.50878,19.0423465 C160.4216,17.9265165 163.18458,16.9700865 164.88492,16.6512965" id="Fill-20" fill="#000000"></path>
            <text id="N" font-family="STIXGeneral-Regular, STIXGeneral" font-size="9.9626" font-weight="normal" fill="#000000">
                <tspan x="149.633" y="11">N</tspan>
            </text>
        </g>
    </g>
</svg>