<?xml version="1.0" encoding="UTF-8" standalone="no"?>
<!DOCTYPE svg PUBLIC "-//W3C//DTD SVG 1.1//EN"
 "http://www.w3.org/Graphics/SVG/1.1/DTD/svg11.dtd">
<!-- Generated by graphviz version 2.42.3 (20191010.1750)
 -->
<!-- Title: FST Pages: 1 -->
<svg width="385pt" height="82pt"
 viewBox="0.00 0.00 385.20 82.00" xmlns="http://www.w3.org/2000/svg" xmlns:xlink="http://www.w3.org/1999/xlink">
<g id="graph0" class="graph" transform="scale(1 1) rotate(0) translate(4 78)">
<title>FST</title>
<polygon fill="white" stroke="transparent" points="-4,4 -4,-78 381.2,-78 381.2,4 -4,4"/>
<!-- 0 -->
<g id="node1" class="node">
<title>0</title>
<ellipse fill="none" stroke="black" stroke-width="2" cx="22" cy="-22" rx="18" ry="18"/>
<ellipse fill="none" stroke="black" stroke-width="2" cx="22" cy="-22" rx="22" ry="22"/>
<text text-anchor="middle" x="22" y="-17.8" font-family="Times,serif" font-size="14.00">0</text>
</g>
<!-- 1 -->
<g id="node2" class="node">
<title>1</title>
<ellipse fill="none" stroke="black" cx="109.1" cy="-53" rx="18" ry="18"/>
<text text-anchor="middle" x="109.1" y="-48.8" font-family="Times,serif" font-size="14.00">1</text>
</g>
<!-- 0&#45;&gt;1 -->
<g id="edge1" class="edge">
<title>0&#45;&gt;1</title>
<path fill="none" stroke="black" d="M43.17,-29.35C54.96,-33.64 69.95,-39.1 82.56,-43.7"/>
<polygon fill="black" stroke="black" points="81.46,-47.02 92.06,-47.16 83.86,-40.44 81.46,-47.02"/>
<text text-anchor="middle" x="67.55" y="-43.8" font-family="Times,serif" font-size="14.00">ε/0</text>
</g>
<!-- 2 -->
<g id="node3" class="node">
<title>2</title>
<ellipse fill="none" stroke="black" cx="192.21" cy="-56" rx="18" ry="18"/>
<text text-anchor="middle" x="192.21" y="-51.8" font-family="Times,serif" font-size="14.00">2</text>
</g>
<!-- 1&#45;&gt;2 -->
<g id="edge2" class="edge">
<title>1&#45;&gt;2</title>
<path fill="none" stroke="black" d="M127.3,-53.64C137.95,-54.03 151.85,-54.54 163.97,-54.99"/>
<polygon fill="black" stroke="black" points="163.91,-58.49 174.03,-55.36 164.17,-51.5 163.91,-58.49"/>
<text text-anchor="middle" x="150.66" y="-56.8" font-family="Times,serif" font-size="14.00">a/0</text>
</g>
<!-- 3 -->
<g id="node4" class="node">
<title>3</title>
<ellipse fill="none" stroke="black" cx="276.1" cy="-54" rx="18" ry="18"/>
<text text-anchor="middle" x="276.1" y="-49.8" font-family="Times,serif" font-size="14.00">3</text>
</g>
<!-- 2&#45;&gt;3 -->
<g id="edge3" class="edge">
<title>2&#45;&gt;3</title>
<path fill="none" stroke="black" d="M210.57,-55.58C221.39,-55.31 235.55,-54.97 247.84,-54.67"/>
<polygon fill="black" stroke="black" points="248.12,-58.16 258.04,-54.42 247.95,-51.16 248.12,-58.16"/>
<text text-anchor="middle" x="234.15" y="-57.8" font-family="Times,serif" font-size="14.00">b/0</text>
</g>
<!-- 4 -->
<g id="node5" class="node">
<title>4</title>
<ellipse fill="none" stroke="black" cx="359.2" cy="-22" rx="18" ry="18"/>
<text text-anchor="middle" x="359.2" y="-17.8" font-family="Times,serif" font-size="14.00">4</text>
</g>
<!-- 3&#45;&gt;4 -->
<g id="edge4" class="edge">
<title>3&#45;&gt;4</title>
<path fill="none" stroke="black" d="M293.12,-47.68C304.45,-43.21 319.87,-37.12 332.86,-32"/>
<polygon fill="black" stroke="black" points="334.19,-35.24 342.21,-28.31 331.62,-28.72 334.19,-35.24"/>
<text text-anchor="middle" x="317.65" y="-42.8" font-family="Times,serif" font-size="14.00">a/0</text>
</g>
<!-- 4&#45;&gt;0 -->
<g id="edge5" class="edge">
<title>4&#45;&gt;0</title>
<path fill="none" stroke="black" d="M341.92,-16.85C325.68,-12.17 299.92,-6 277.1,-6 108.1,-6 108.1,-6 108.1,-6 89.73,-6 69.5,-9.65 53.38,-13.46"/>
<polygon fill="black" stroke="black" points="52.28,-10.12 43.43,-15.95 53.99,-16.91 52.28,-10.12"/>
<text text-anchor="middle" x="192.21" y="-8.8" font-family="Times,serif" font-size="14.00">ε/0</text>
</g>
</g>
</svg>
