<?xml version="1.0" encoding="UTF-8" standalone="no"?>
<!DOCTYPE svg PUBLIC "-//W3C//DTD SVG 1.1//EN"
 "http://www.w3.org/Graphics/SVG/1.1/DTD/svg11.dtd">
<!-- Generated by graphviz version 2.42.3 (20191010.1750)
 -->
<!-- Title: FST Pages: 1 -->
<svg width="468pt" height="52pt"
 viewBox="0.00 0.00 468.30 52.00" xmlns="http://www.w3.org/2000/svg" xmlns:xlink="http://www.w3.org/1999/xlink">
<g id="graph0" class="graph" transform="scale(1 1) rotate(0) translate(4 48)">
<title>FST</title>
<polygon fill="white" stroke="transparent" points="-4,4 -4,-48 464.3,-48 464.3,4 -4,4"/>
<!-- 0 -->
<g id="node1" class="node">
<title>0</title>
<ellipse fill="none" stroke="black" stroke-width="2" cx="18" cy="-22" rx="18" ry="18"/>
<text text-anchor="middle" x="18" y="-17.8" font-family="Times,serif" font-size="14.00">0</text>
</g>
<!-- 1 -->
<g id="node2" class="node">
<title>1</title>
<ellipse fill="none" stroke="black" cx="101.89" cy="-22" rx="18" ry="18"/>
<text text-anchor="middle" x="101.89" y="-17.8" font-family="Times,serif" font-size="14.00">1</text>
</g>
<!-- 0&#45;&gt;1 -->
<g id="edge1" class="edge">
<title>0&#45;&gt;1</title>
<path fill="none" stroke="black" d="M36.37,-22C47.19,-22 61.34,-22 73.64,-22"/>
<polygon fill="black" stroke="black" points="73.83,-25.5 83.83,-22 73.83,-18.5 73.83,-25.5"/>
<text text-anchor="middle" x="59.94" y="-24.8" font-family="Times,serif" font-size="14.00">b/0</text>
</g>
<!-- 2 -->
<g id="node3" class="node">
<title>2</title>
<ellipse fill="none" stroke="black" cx="184.99" cy="-22" rx="18" ry="18"/>
<text text-anchor="middle" x="184.99" y="-17.8" font-family="Times,serif" font-size="14.00">2</text>
</g>
<!-- 1&#45;&gt;2 -->
<g id="edge2" class="edge">
<title>1&#45;&gt;2</title>
<path fill="none" stroke="black" d="M120.09,-22C130.73,-22 144.64,-22 156.75,-22"/>
<polygon fill="black" stroke="black" points="156.82,-25.5 166.82,-22 156.82,-18.5 156.82,-25.5"/>
<text text-anchor="middle" x="143.44" y="-24.8" font-family="Times,serif" font-size="14.00">a/0</text>
</g>
<!-- 3 -->
<g id="node4" class="node">
<title>3</title>
<ellipse fill="none" stroke="black" cx="268.1" cy="-22" rx="18" ry="18"/>
<text text-anchor="middle" x="268.1" y="-17.8" font-family="Times,serif" font-size="14.00">3</text>
</g>
<!-- 2&#45;&gt;3 -->
<g id="edge3" class="edge">
<title>2&#45;&gt;3</title>
<path fill="none" stroke="black" d="M203.19,-22C213.84,-22 227.74,-22 239.86,-22"/>
<polygon fill="black" stroke="black" points="239.92,-25.5 249.92,-22 239.92,-18.5 239.92,-25.5"/>
<text text-anchor="middle" x="226.54" y="-24.8" font-family="Times,serif" font-size="14.00">ε/0</text>
</g>
<!-- 4 -->
<g id="node5" class="node">
<title>4</title>
<ellipse fill="none" stroke="black" cx="351.2" cy="-22" rx="18" ry="18"/>
<text text-anchor="middle" x="351.2" y="-17.8" font-family="Times,serif" font-size="14.00">4</text>
</g>
<!-- 3&#45;&gt;4 -->
<g id="edge4" class="edge">
<title>3&#45;&gt;4</title>
<path fill="none" stroke="black" d="M286.3,-22C296.94,-22 310.84,-22 322.96,-22"/>
<polygon fill="black" stroke="black" points="323.03,-25.5 333.03,-22 323.02,-18.5 323.03,-25.5"/>
<text text-anchor="middle" x="309.65" y="-24.8" font-family="Times,serif" font-size="14.00">a/0</text>
</g>
<!-- 5 -->
<g id="node6" class="node">
<title>5</title>
<ellipse fill="none" stroke="black" cx="438.3" cy="-22" rx="18" ry="18"/>
<ellipse fill="none" stroke="black" cx="438.3" cy="-22" rx="22" ry="22"/>
<text text-anchor="middle" x="438.3" y="-17.8" font-family="Times,serif" font-size="14.00">5</text>
</g>
<!-- 4&#45;&gt;5 -->
<g id="edge5" class="edge">
<title>4&#45;&gt;5</title>
<path fill="none" stroke="black" d="M369.42,-22C379.87,-22 393.51,-22 405.82,-22"/>
<polygon fill="black" stroke="black" points="406.19,-25.5 416.19,-22 406.19,-18.5 406.19,-25.5"/>
<text text-anchor="middle" x="392.75" y="-24.8" font-family="Times,serif" font-size="14.00">c/0</text>
</g>
</g>
</svg>
