<?xml version="1.0" encoding="UTF-8" standalone="no"?>
<!DOCTYPE svg PUBLIC "-//W3C//DTD SVG 1.1//EN"
 "http://www.w3.org/Graphics/SVG/1.1/DTD/svg11.dtd">
<!-- Generated by graphviz version 2.42.3 (20191010.1750)
 -->
<!-- Title: FST Pages: 1 -->
<svg width="220pt" height="97pt"
 viewBox="0.00 0.00 219.78 97.00" xmlns="http://www.w3.org/2000/svg" xmlns:xlink="http://www.w3.org/1999/xlink">
<g id="graph0" class="graph" transform="scale(1 1) rotate(0) translate(4 93)">
<title>FST</title>
<polygon fill="white" stroke="transparent" points="-4,4 -4,-93 215.78,-93 215.78,4 -4,4"/>
<!-- 0 -->
<g id="node1" class="node">
<title>0</title>
<ellipse fill="none" stroke="black" stroke-width="2" cx="18" cy="-39" rx="18" ry="18"/>
<text text-anchor="middle" x="18" y="-34.8" font-family="Times,serif" font-size="14.00">0</text>
</g>
<!-- 0&#45;&gt;0 -->
<g id="edge1" class="edge">
<title>0&#45;&gt;0</title>
<path fill="none" stroke="black" d="M10.97,-55.66C9.41,-65.62 11.75,-75 18,-75 22,-75 24.4,-71.15 25.2,-65.77"/>
<polygon fill="black" stroke="black" points="28.7,-65.6 25.03,-55.66 21.7,-65.72 28.7,-65.6"/>
<text text-anchor="middle" x="18" y="-77.8" font-family="Times,serif" font-size="14.00">a/0</text>
</g>
<!-- 1 -->
<g id="node2" class="node">
<title>1</title>
<ellipse fill="none" stroke="black" cx="101.89" cy="-56" rx="18" ry="18"/>
<text text-anchor="middle" x="101.89" y="-51.8" font-family="Times,serif" font-size="14.00">1</text>
</g>
<!-- 0&#45;&gt;1 -->
<g id="edge2" class="edge">
<title>0&#45;&gt;1</title>
<path fill="none" stroke="black" d="M34.17,-47.62C39.35,-50.15 45.28,-52.6 51,-54 58.13,-55.74 66,-56.55 73.34,-56.85"/>
<polygon fill="black" stroke="black" points="73.53,-60.35 83.57,-56.98 73.61,-53.35 73.53,-60.35"/>
<text text-anchor="middle" x="59.94" y="-58.8" font-family="Times,serif" font-size="14.00">b/0</text>
</g>
<!-- 0&#45;&gt;1 -->
<g id="edge3" class="edge">
<title>0&#45;&gt;1</title>
<path fill="none" stroke="black" d="M35.94,-35.2C45.74,-33.69 58.21,-32.94 68.89,-36 72.16,-36.94 75.43,-38.32 78.55,-39.93"/>
<polygon fill="black" stroke="black" points="76.99,-43.07 87.37,-45.21 80.59,-37.07 76.99,-43.07"/>
<text text-anchor="middle" x="59.94" y="-38.8" font-family="Times,serif" font-size="14.00">c/0</text>
</g>
<!-- 2 -->
<g id="node3" class="node">
<title>2</title>
<ellipse fill="none" stroke="black" cx="189.78" cy="-22" rx="18" ry="18"/>
<ellipse fill="none" stroke="black" cx="189.78" cy="-22" rx="22" ry="22"/>
<text text-anchor="middle" x="189.78" y="-17.8" font-family="Times,serif" font-size="14.00">2</text>
</g>
<!-- 1&#45;&gt;2 -->
<g id="edge4" class="edge">
<title>1&#45;&gt;2</title>
<path fill="none" stroke="black" d="M119.04,-49.6C130.46,-45.08 146.09,-38.9 159.65,-33.53"/>
<polygon fill="black" stroke="black" points="161.07,-36.73 169.08,-29.8 158.49,-30.23 161.07,-36.73"/>
<text text-anchor="middle" x="143.83" y="-45.8" font-family="Times,serif" font-size="14.00">b/0</text>
</g>
<!-- 2&#45;&gt;0 -->
<g id="edge5" class="edge">
<title>2&#45;&gt;0</title>
<path fill="none" stroke="black" d="M168.12,-17.68C146.84,-13.93 112.81,-9.82 83.89,-15 70.22,-17.45 55.66,-22.58 43.8,-27.47"/>
<polygon fill="black" stroke="black" points="42.35,-24.29 34.56,-31.46 45.13,-30.71 42.35,-24.29"/>
<text text-anchor="middle" x="101.89" y="-17.8" font-family="Times,serif" font-size="14.00">b/0</text>
</g>
</g>
</svg>
