<?xml version="1.0" encoding="UTF-8" standalone="no"?>
<!DOCTYPE svg PUBLIC "-//W3C//DTD SVG 1.1//EN"
 "http://www.w3.org/Graphics/SVG/1.1/DTD/svg11.dtd">
<!-- Generated by graphviz version 2.42.3 (20191010.1750)
 -->
<!-- Title: FST Pages: 1 -->
<svg width="312pt" height="134pt"
 viewBox="0.00 0.00 311.67 134.00" xmlns="http://www.w3.org/2000/svg" xmlns:xlink="http://www.w3.org/1999/xlink">
<g id="graph0" class="graph" transform="scale(1 1) rotate(0) translate(4 130)">
<title>FST</title>
<polygon fill="white" stroke="transparent" points="-4,4 -4,-130 307.67,-130 307.67,4 -4,4"/>
<!-- 0 -->
<g id="node1" class="node">
<title>0</title>
<ellipse fill="none" stroke="black" stroke-width="2" cx="18" cy="-75" rx="18" ry="18"/>
<text text-anchor="middle" x="18" y="-70.8" font-family="Times,serif" font-size="14.00">0</text>
</g>
<!-- 1 -->
<g id="node2" class="node">
<title>1</title>
<ellipse fill="none" stroke="black" stroke-width="2" cx="101.89" cy="-108" rx="18" ry="18"/>
<text text-anchor="middle" x="101.89" y="-103.8" font-family="Times,serif" font-size="14.00">1</text>
</g>
<!-- 0&#45;&gt;1 -->
<g id="edge1" class="edge">
<title>0&#45;&gt;1</title>
<path fill="none" stroke="black" d="M35.18,-81.52C46.69,-86.16 62.39,-92.49 75.56,-97.79"/>
<polygon fill="black" stroke="black" points="74.44,-101.11 85.02,-101.61 77.06,-94.62 74.44,-101.11"/>
<text text-anchor="middle" x="59.94" y="-96.8" font-family="Times,serif" font-size="14.00">b/0</text>
</g>
<!-- 2 -->
<g id="node3" class="node">
<title>2</title>
<ellipse fill="none" stroke="black" cx="101.89" cy="-49" rx="18" ry="18"/>
<text text-anchor="middle" x="101.89" y="-44.8" font-family="Times,serif" font-size="14.00">2</text>
</g>
<!-- 0&#45;&gt;2 -->
<g id="edge2" class="edge">
<title>0&#45;&gt;2</title>
<path fill="none" stroke="black" d="M34.8,-68.1C39.91,-66 45.65,-63.78 51,-62 58.48,-59.52 66.71,-57.21 74.29,-55.24"/>
<polygon fill="black" stroke="black" points="75.25,-58.61 84.1,-52.79 73.55,-51.82 75.25,-58.61"/>
<text text-anchor="middle" x="59.94" y="-64.8" font-family="Times,serif" font-size="14.00">a/0</text>
</g>
<!-- 3 -->
<g id="node4" class="node">
<title>3</title>
<ellipse fill="none" stroke="black" cx="189.78" cy="-68" rx="18" ry="18"/>
<ellipse fill="none" stroke="black" cx="189.78" cy="-68" rx="22" ry="22"/>
<text text-anchor="middle" x="189.78" y="-63.8" font-family="Times,serif" font-size="14.00">3</text>
</g>
<!-- 1&#45;&gt;3 -->
<g id="edge3" class="edge">
<title>1&#45;&gt;3</title>
<path fill="none" stroke="black" d="M118.64,-100.66C130.29,-95.24 146.47,-87.7 160.36,-81.24"/>
<polygon fill="black" stroke="black" points="161.93,-84.37 169.52,-76.97 158.97,-78.02 161.93,-84.37"/>
<text text-anchor="middle" x="143.83" y="-94.8" font-family="Times,serif" font-size="14.00">a/0</text>
</g>
<!-- 2&#45;&gt;3 -->
<g id="edge4" class="edge">
<title>2&#45;&gt;3</title>
<path fill="none" stroke="black" d="M119.86,-52.75C130.81,-55.18 145.38,-58.4 158.3,-61.26"/>
<polygon fill="black" stroke="black" points="157.69,-64.71 168.21,-63.45 159.2,-57.87 157.69,-64.71"/>
<text text-anchor="middle" x="143.83" y="-61.8" font-family="Times,serif" font-size="14.00">b/0</text>
</g>
<!-- 2&#45;&gt;3 -->
<g id="edge5" class="edge">
<title>2&#45;&gt;3</title>
<path fill="none" stroke="black" d="M118.47,-41.13C128.46,-37.16 141.6,-33.95 152.78,-38 157.5,-39.71 162.04,-42.34 166.21,-45.35"/>
<polygon fill="black" stroke="black" points="164.23,-48.25 174.19,-51.88 168.67,-42.84 164.23,-48.25"/>
<text text-anchor="middle" x="143.83" y="-40.8" font-family="Times,serif" font-size="14.00">a/0</text>
</g>
<!-- 4 -->
<g id="node5" class="node">
<title>4</title>
<ellipse fill="none" stroke="black" cx="281.67" cy="-22" rx="18" ry="18"/>
<ellipse fill="none" stroke="black" cx="281.67" cy="-22" rx="22" ry="22"/>
<text text-anchor="middle" x="281.67" y="-17.8" font-family="Times,serif" font-size="14.00">4</text>
</g>
<!-- 2&#45;&gt;4 -->
<g id="edge6" class="edge">
<title>2&#45;&gt;4</title>
<path fill="none" stroke="black" d="M117.95,-40.82C123.22,-38.13 129.24,-35.25 134.89,-33 149.08,-27.34 152.68,-25.31 167.78,-23 195.21,-18.8 226.83,-18.94 249.61,-19.9"/>
<polygon fill="black" stroke="black" points="249.56,-23.4 259.72,-20.41 249.91,-16.41 249.56,-23.4"/>
<text text-anchor="middle" x="189.78" y="-25.8" font-family="Times,serif" font-size="14.00">c/0</text>
</g>
<!-- 3&#45;&gt;4 -->
<g id="edge7" class="edge">
<title>3&#45;&gt;4</title>
<path fill="none" stroke="black" d="M209.84,-58.24C222.24,-51.9 238.61,-43.52 252.5,-36.42"/>
<polygon fill="black" stroke="black" points="254.33,-39.41 261.63,-31.74 251.14,-33.18 254.33,-39.41"/>
<text text-anchor="middle" x="235.72" y="-51.8" font-family="Times,serif" font-size="14.00">b/0</text>
</g>
</g>
</svg>
