<?xml version="1.0" encoding="UTF-8" standalone="no"?>
<!DOCTYPE svg PUBLIC "-//W3C//DTD SVG 1.1//EN"
 "http://www.w3.org/Graphics/SVG/1.1/DTD/svg11.dtd">
<!-- Generated by graphviz version 2.42.3 (20191010.1750)
 -->
<!-- Title: FST Pages: 1 -->
<svg width="333pt" height="82pt"
 viewBox="0.00 0.00 332.81 82.00" xmlns="http://www.w3.org/2000/svg" xmlns:xlink="http://www.w3.org/1999/xlink">
<g id="graph0" class="graph" transform="scale(1 1) rotate(0) translate(4 78)">
<title>FST</title>
<polygon fill="white" stroke="transparent" points="-4,4 -4,-78 328.81,-78 328.81,4 -4,4"/>
<!-- 0 -->
<g id="node1" class="node">
<title>0</title>
<ellipse fill="none" stroke="black" stroke-width="2" cx="18" cy="-22" rx="18" ry="18"/>
<text text-anchor="middle" x="18" y="-17.8" font-family="Times,serif" font-size="14.00">0</text>
</g>
<!-- 1 -->
<g id="node2" class="node">
<title>1</title>
<ellipse fill="none" stroke="black" stroke-width="2" cx="111.6" cy="-56" rx="18" ry="18"/>
<text text-anchor="middle" x="111.6" y="-51.8" font-family="Times,serif" font-size="14.00">1</text>
</g>
<!-- 0&#45;&gt;1 -->
<g id="edge1" class="edge">
<title>0&#45;&gt;1</title>
<path fill="none" stroke="black" d="M35.38,-28.08C49.05,-33.16 68.8,-40.49 84.63,-46.36"/>
<polygon fill="black" stroke="black" points="83.78,-49.78 94.37,-49.97 86.21,-43.21 83.78,-49.78"/>
<text text-anchor="middle" x="64.8" y="-46.8" font-family="Times,serif" font-size="14.00">a/1.1</text>
</g>
<!-- 2 -->
<g id="node3" class="node">
<title>2</title>
<ellipse fill="none" stroke="black" cx="205.21" cy="-22" rx="18" ry="18"/>
<text text-anchor="middle" x="205.21" y="-17.8" font-family="Times,serif" font-size="14.00">2</text>
</g>
<!-- 0&#45;&gt;2 -->
<g id="edge2" class="edge">
<title>0&#45;&gt;2</title>
<path fill="none" stroke="black" d="M36.15,-19.93C51.25,-18.22 73.85,-15.92 93.6,-15 109.59,-14.25 113.62,-14.25 129.6,-15 145.34,-15.74 162.89,-17.34 177.01,-18.83"/>
<polygon fill="black" stroke="black" points="176.73,-22.32 187.05,-19.93 177.49,-15.36 176.73,-22.32"/>
<text text-anchor="middle" x="111.6" y="-17.8" font-family="Times,serif" font-size="14.00">b/3.2</text>
</g>
<!-- 1&#45;&gt;2 -->
<g id="edge3" class="edge">
<title>1&#45;&gt;2</title>
<path fill="none" stroke="black" d="M128.98,-49.92C142.66,-44.84 162.41,-37.51 178.24,-31.64"/>
<polygon fill="black" stroke="black" points="179.81,-34.79 187.97,-28.03 177.38,-28.22 179.81,-34.79"/>
<text text-anchor="middle" x="158.41" y="-46.8" font-family="Times,serif" font-size="14.00">c/1.4</text>
</g>
<!-- 3 -->
<g id="node4" class="node">
<title>3</title>
<ellipse fill="none" stroke="black" cx="302.81" cy="-22" rx="18" ry="18"/>
<ellipse fill="none" stroke="black" cx="302.81" cy="-22" rx="22" ry="22"/>
<text text-anchor="middle" x="302.81" y="-17.8" font-family="Times,serif" font-size="14.00">3</text>
</g>
<!-- 2&#45;&gt;3 -->
<g id="edge4" class="edge">
<title>2&#45;&gt;3</title>
<path fill="none" stroke="black" d="M223.3,-22C236.3,-22 254.57,-22 270.21,-22"/>
<polygon fill="black" stroke="black" points="270.52,-25.5 280.52,-22 270.52,-18.5 270.52,-25.5"/>
<text text-anchor="middle" x="252.01" y="-24.8" font-family="Times,serif" font-size="14.00">a/2.1</text>
</g>
</g>
</svg>
