<?xml version="1.0" encoding="UTF-8" standalone="no"?>
<!DOCTYPE svg PUBLIC "-//W3C//DTD SVG 1.1//EN"
 "http://www.w3.org/Graphics/SVG/1.1/DTD/svg11.dtd">
<!-- Generated by graphviz version 2.42.3 (20191010.1750)
 -->
<!-- Title: FST Pages: 1 -->
<svg width="136pt" height="84pt"
 viewBox="0.00 0.00 135.89 84.00" xmlns="http://www.w3.org/2000/svg" xmlns:xlink="http://www.w3.org/1999/xlink">
<g id="graph0" class="graph" transform="scale(1 1) rotate(0) translate(4 80)">
<title>FST</title>
<polygon fill="white" stroke="transparent" points="-4,4 -4,-80 131.89,-80 131.89,4 -4,4"/>
<!-- 0 -->
<g id="node1" class="node">
<title>0</title>
<ellipse fill="none" stroke="black" stroke-width="2" cx="18" cy="-22" rx="18" ry="18"/>
<text text-anchor="middle" x="18" y="-17.8" font-family="Times,serif" font-size="14.00">0</text>
</g>
<!-- 0&#45;&gt;0 -->
<g id="edge1" class="edge">
<title>0&#45;&gt;0</title>
<path fill="none" stroke="black" d="M10.97,-38.66C9.41,-48.62 11.75,-58 18,-58 22,-58 24.4,-54.15 25.2,-48.77"/>
<polygon fill="black" stroke="black" points="28.7,-48.6 25.03,-38.66 21.7,-48.72 28.7,-48.6"/>
<text text-anchor="middle" x="18" y="-60.8" font-family="Times,serif" font-size="14.00">a/0</text>
</g>
<!-- 1 -->
<g id="node2" class="node">
<title>1</title>
<ellipse fill="none" stroke="black" cx="105.89" cy="-22" rx="18" ry="18"/>
<ellipse fill="none" stroke="black" cx="105.89" cy="-22" rx="22" ry="22"/>
<text text-anchor="middle" x="105.89" y="-17.8" font-family="Times,serif" font-size="14.00">1</text>
</g>
<!-- 0&#45;&gt;1 -->
<g id="edge2" class="edge">
<title>0&#45;&gt;1</title>
<path fill="none" stroke="black" d="M36.38,-22C47.03,-22 60.97,-22 73.49,-22"/>
<polygon fill="black" stroke="black" points="73.58,-25.5 83.58,-22 73.58,-18.5 73.58,-25.5"/>
<text text-anchor="middle" x="59.94" y="-24.8" font-family="Times,serif" font-size="14.00">b/0</text>
</g>
<!-- 1&#45;&gt;1 -->
<g id="edge3" class="edge">
<title>1&#45;&gt;1</title>
<path fill="none" stroke="black" d="M97.88,-42.58C96.78,-52.84 99.44,-62 105.89,-62 110.02,-62 112.6,-58.24 113.63,-52.84"/>
<polygon fill="black" stroke="black" points="117.13,-52.67 113.9,-42.58 110.14,-52.49 117.13,-52.67"/>
<text text-anchor="middle" x="105.89" y="-64.8" font-family="Times,serif" font-size="14.00">c/0</text>
</g>
</g>
</svg>
