<?xml version="1.0" encoding="UTF-8" standalone="no"?>
<!DOCTYPE svg PUBLIC "-//W3C//DTD SVG 1.1//EN"
 "http://www.w3.org/Graphics/SVG/1.1/DTD/svg11.dtd">
<!-- Generated by graphviz version 2.42.3 (20191010.1750)
 -->
<!-- Title: FST Pages: 1 -->
<svg width="335pt" height="118pt"
 viewBox="0.00 0.00 334.77 118.00" xmlns="http://www.w3.org/2000/svg" xmlns:xlink="http://www.w3.org/1999/xlink">
<g id="graph0" class="graph" transform="scale(1 1) rotate(0) translate(4 114)">
<title>FST</title>
<polygon fill="white" stroke="transparent" points="-4,4 -4,-114 330.77,-114 330.77,4 -4,4"/>
<!-- 0 -->
<g id="node1" class="node">
<title>0</title>
<ellipse fill="none" stroke="black" stroke-width="2" cx="18" cy="-55" rx="18" ry="18"/>
<text text-anchor="middle" x="18" y="-50.8" font-family="Times,serif" font-size="14.00">0</text>
</g>
<!-- 1 -->
<g id="node2" class="node">
<title>1</title>
<ellipse fill="none" stroke="black" cx="111.99" cy="-82" rx="18" ry="18"/>
<text text-anchor="middle" x="111.99" y="-77.8" font-family="Times,serif" font-size="14.00">1</text>
</g>
<!-- 0&#45;&gt;1 -->
<g id="edge1" class="edge">
<title>0&#45;&gt;1</title>
<path fill="none" stroke="black" d="M34.32,-63.1C39.51,-65.59 45.4,-68.16 51,-70 61.48,-73.45 73.34,-76.08 83.73,-77.98"/>
<polygon fill="black" stroke="black" points="83.46,-81.48 93.9,-79.7 84.63,-74.58 83.46,-81.48"/>
<text text-anchor="middle" x="65" y="-78.8" font-family="Times,serif" font-size="14.00">a:a/0</text>
</g>
<!-- 0&#45;&gt;1 -->
<g id="edge2" class="edge">
<title>0&#45;&gt;1</title>
<path fill="none" stroke="black" d="M35.64,-50.56C48.03,-48.09 65.13,-46.52 78.99,-52 84.09,-54.01 88.84,-57.26 93.05,-60.89"/>
<polygon fill="black" stroke="black" points="90.82,-63.61 100.41,-68.13 95.73,-58.62 90.82,-63.61"/>
<text text-anchor="middle" x="65" y="-54.8" font-family="Times,serif" font-size="14.00">a:b/0</text>
</g>
<!-- 2 -->
<g id="node3" class="node">
<title>2</title>
<ellipse fill="none" stroke="black" cx="111.99" cy="-18" rx="18" ry="18"/>
<text text-anchor="middle" x="111.99" y="-13.8" font-family="Times,serif" font-size="14.00">2</text>
</g>
<!-- 0&#45;&gt;2 -->
<g id="edge3" class="edge">
<title>0&#45;&gt;2</title>
<path fill="none" stroke="black" d="M31.48,-43.04C37.05,-38.31 43.95,-33.24 51,-30 61.21,-25.31 73.22,-22.45 83.8,-20.71"/>
<polygon fill="black" stroke="black" points="84.37,-24.16 93.79,-19.31 83.4,-17.23 84.37,-24.16"/>
<text text-anchor="middle" x="65" y="-32.8" font-family="Times,serif" font-size="14.00">b:c/0</text>
</g>
<!-- 3 -->
<g id="node4" class="node">
<title>3</title>
<ellipse fill="none" stroke="black" cx="206.77" cy="-92" rx="18" ry="18"/>
<text text-anchor="middle" x="206.77" y="-87.8" font-family="Times,serif" font-size="14.00">3</text>
</g>
<!-- 1&#45;&gt;3 -->
<g id="edge4" class="edge">
<title>1&#45;&gt;3</title>
<path fill="none" stroke="black" d="M130.01,-83.83C143.61,-85.3 162.94,-87.38 178.66,-89.08"/>
<polygon fill="black" stroke="black" points="178.55,-92.59 188.86,-90.18 179.3,-85.63 178.55,-92.59"/>
<text text-anchor="middle" x="159.38" y="-90.8" font-family="Times,serif" font-size="14.00">a:a/0</text>
</g>
<!-- 4 -->
<g id="node5" class="node">
<title>4</title>
<ellipse fill="none" stroke="black" cx="206.77" cy="-28" rx="18" ry="18"/>
<text text-anchor="middle" x="206.77" y="-23.8" font-family="Times,serif" font-size="14.00">4</text>
</g>
<!-- 1&#45;&gt;4 -->
<g id="edge5" class="edge">
<title>1&#45;&gt;4</title>
<path fill="none" stroke="black" d="M127.9,-73.32C142.51,-64.82 165,-51.73 182.07,-41.8"/>
<polygon fill="black" stroke="black" points="184.02,-44.71 190.9,-36.65 180.5,-38.66 184.02,-44.71"/>
<text text-anchor="middle" x="159.38" y="-64.8" font-family="Times,serif" font-size="14.00">b:b/0</text>
</g>
<!-- 2&#45;&gt;4 -->
<g id="edge6" class="edge">
<title>2&#45;&gt;4</title>
<path fill="none" stroke="black" d="M130.12,-17.11C142.35,-16.76 159.15,-16.86 173.77,-19 175.54,-19.26 177.35,-19.59 179.16,-19.96"/>
<polygon fill="black" stroke="black" points="178.79,-23.48 189.34,-22.5 180.48,-16.69 178.79,-23.48"/>
<text text-anchor="middle" x="159.38" y="-21.8" font-family="Times,serif" font-size="14.00">c:c/0</text>
</g>
<!-- 5 -->
<g id="node6" class="node">
<title>5</title>
<ellipse fill="none" stroke="black" cx="304.77" cy="-55" rx="18" ry="18"/>
<ellipse fill="none" stroke="black" cx="304.77" cy="-55" rx="22" ry="22"/>
<text text-anchor="middle" x="304.77" y="-50.8" font-family="Times,serif" font-size="14.00">5</text>
</g>
<!-- 3&#45;&gt;5 -->
<g id="edge7" class="edge">
<title>3&#45;&gt;5</title>
<path fill="none" stroke="black" d="M224.06,-85.72C237.79,-80.43 257.79,-72.72 274.32,-66.35"/>
<polygon fill="black" stroke="black" points="276.01,-69.45 284.08,-62.59 273.49,-62.92 276.01,-69.45"/>
<text text-anchor="middle" x="253.77" y="-80.8" font-family="Times,serif" font-size="14.00">b:a/0</text>
</g>
<!-- 4&#45;&gt;5 -->
<g id="edge8" class="edge">
<title>4&#45;&gt;5</title>
<path fill="none" stroke="black" d="M224.49,-32.7C237.89,-36.47 257.04,-41.86 273.16,-46.39"/>
<polygon fill="black" stroke="black" points="272.66,-49.89 283.23,-49.22 274.55,-43.15 272.66,-49.89"/>
<text text-anchor="middle" x="253.77" y="-46.8" font-family="Times,serif" font-size="14.00">c:b/0</text>
</g>
<!-- 4&#45;&gt;5 -->
<g id="edge9" class="edge">
<title>4&#45;&gt;5</title>
<path fill="none" stroke="black" d="M223.61,-21.18C236.04,-16.87 253.56,-13.12 267.77,-19 273.77,-21.49 279.29,-25.51 284.12,-29.99"/>
<polygon fill="black" stroke="black" points="281.63,-32.46 291.09,-37.24 286.68,-27.61 281.63,-32.46"/>
<text text-anchor="middle" x="253.77" y="-21.8" font-family="Times,serif" font-size="14.00">c:c/0</text>
</g>
</g>
</svg>
