<?xml version="1.0" encoding="UTF-8" standalone="no"?>
<!DOCTYPE svg PUBLIC "-//W3C//DTD SVG 1.1//EN"
 "http://www.w3.org/Graphics/SVG/1.1/DTD/svg11.dtd">
<!-- Generated by graphviz version 2.42.3 (20191010.1750)
 -->
<!-- Title: FST Pages: 1 -->
<svg width="218pt" height="52pt"
 viewBox="0.00 0.00 218.21 52.00" xmlns="http://www.w3.org/2000/svg" xmlns:xlink="http://www.w3.org/1999/xlink">
<g id="graph0" class="graph" transform="scale(1 1) rotate(0) translate(4 48)">
<title>FST</title>
<polygon fill="white" stroke="transparent" points="-4,4 -4,-48 214.21,-48 214.21,4 -4,4"/>
<!-- 0 -->
<g id="node1" class="node">
<title>0</title>
<ellipse fill="none" stroke="black" stroke-width="2" cx="18" cy="-22" rx="18" ry="18"/>
<text text-anchor="middle" x="18" y="-17.8" font-family="Times,serif" font-size="14.00">0</text>
</g>
<!-- 1 -->
<g id="node2" class="node">
<title>1</title>
<ellipse fill="none" stroke="black" cx="101.1" cy="-22" rx="18" ry="18"/>
<text text-anchor="middle" x="101.1" y="-17.8" font-family="Times,serif" font-size="14.00">1</text>
</g>
<!-- 0&#45;&gt;1 -->
<g id="edge1" class="edge">
<title>0&#45;&gt;1</title>
<path fill="none" stroke="black" d="M36.2,-22C46.85,-22 60.75,-22 72.87,-22"/>
<polygon fill="black" stroke="black" points="72.93,-25.5 82.93,-22 72.93,-18.5 72.93,-25.5"/>
<text text-anchor="middle" x="59.55" y="-24.8" font-family="Times,serif" font-size="14.00">a/0</text>
</g>
<!-- 2 -->
<g id="node3" class="node">
<title>2</title>
<ellipse fill="none" stroke="black" cx="188.21" cy="-22" rx="18" ry="18"/>
<ellipse fill="none" stroke="black" cx="188.21" cy="-22" rx="22" ry="22"/>
<text text-anchor="middle" x="188.21" y="-17.8" font-family="Times,serif" font-size="14.00">2</text>
</g>
<!-- 1&#45;&gt;2 -->
<g id="edge2" class="edge">
<title>1&#45;&gt;2</title>
<path fill="none" stroke="black" d="M119.33,-22C129.77,-22 143.41,-22 155.73,-22"/>
<polygon fill="black" stroke="black" points="156.09,-25.5 166.09,-22 156.09,-18.5 156.09,-25.5"/>
<text text-anchor="middle" x="142.66" y="-24.8" font-family="Times,serif" font-size="14.00">c/0</text>
</g>
</g>
</svg>
