<?xml version="1.0" encoding="UTF-8" standalone="no"?>
<!DOCTYPE svg PUBLIC "-//W3C//DTD SVG 1.1//EN"
 "http://www.w3.org/Graphics/SVG/1.1/DTD/svg11.dtd">
<!-- Generated by graphviz version 2.42.3 (20191010.1750)
 -->
<!-- Title: FST Pages: 1 -->
<svg width="304pt" height="118pt"
 viewBox="0.00 0.00 303.67 118.00" xmlns="http://www.w3.org/2000/svg" xmlns:xlink="http://www.w3.org/1999/xlink">
<g id="graph0" class="graph" transform="scale(1 1) rotate(0) translate(4 114)">
<title>FST</title>
<polygon fill="white" stroke="transparent" points="-4,4 -4,-114 299.67,-114 299.67,4 -4,4"/>
<!-- 0 -->
<g id="node1" class="node">
<title>0</title>
<ellipse fill="none" stroke="black" stroke-width="2" cx="18" cy="-44" rx="18" ry="18"/>
<text text-anchor="middle" x="18" y="-39.8" font-family="Times,serif" font-size="14.00">0</text>
</g>
<!-- 1 -->
<g id="node2" class="node">
<title>1</title>
<ellipse fill="none" stroke="black" cx="101.89" cy="-72" rx="18" ry="18"/>
<text text-anchor="middle" x="101.89" y="-67.8" font-family="Times,serif" font-size="14.00">1</text>
</g>
<!-- 0&#45;&gt;1 -->
<g id="edge1" class="edge">
<title>0&#45;&gt;1</title>
<path fill="none" stroke="black" d="M35.18,-49.53C46.51,-53.41 61.89,-58.66 74.92,-63.12"/>
<polygon fill="black" stroke="black" points="74.15,-66.56 84.74,-66.48 76.41,-59.93 74.15,-66.56"/>
<text text-anchor="middle" x="59.94" y="-62.8" font-family="Times,serif" font-size="14.00">a/0</text>
</g>
<!-- 2 -->
<g id="node3" class="node">
<title>2</title>
<ellipse fill="none" stroke="black" cx="101.89" cy="-18" rx="18" ry="18"/>
<text text-anchor="middle" x="101.89" y="-13.8" font-family="Times,serif" font-size="14.00">2</text>
</g>
<!-- 0&#45;&gt;2 -->
<g id="edge2" class="edge">
<title>0&#45;&gt;2</title>
<path fill="none" stroke="black" d="M34.8,-37.1C39.91,-35 45.65,-32.78 51,-31 58.48,-28.52 66.71,-26.21 74.29,-24.24"/>
<polygon fill="black" stroke="black" points="75.25,-27.61 84.1,-21.79 73.55,-20.82 75.25,-27.61"/>
<text text-anchor="middle" x="59.94" y="-33.8" font-family="Times,serif" font-size="14.00">b/0</text>
</g>
<!-- 3 -->
<g id="node4" class="node">
<title>3</title>
<ellipse fill="none" stroke="black" cx="185.78" cy="-92" rx="18" ry="18"/>
<text text-anchor="middle" x="185.78" y="-87.8" font-family="Times,serif" font-size="14.00">3</text>
</g>
<!-- 1&#45;&gt;3 -->
<g id="edge3" class="edge">
<title>1&#45;&gt;3</title>
<path fill="none" stroke="black" d="M119.46,-76.05C130.56,-78.76 145.42,-82.39 158.16,-85.5"/>
<polygon fill="black" stroke="black" points="157.69,-88.99 168.23,-87.96 159.35,-82.19 157.69,-88.99"/>
<text text-anchor="middle" x="143.83" y="-85.8" font-family="Times,serif" font-size="14.00">a/0</text>
</g>
<!-- 4 -->
<g id="node5" class="node">
<title>4</title>
<ellipse fill="none" stroke="black" cx="185.78" cy="-38" rx="18" ry="18"/>
<text text-anchor="middle" x="185.78" y="-33.8" font-family="Times,serif" font-size="14.00">4</text>
</g>
<!-- 1&#45;&gt;4 -->
<g id="edge4" class="edge">
<title>1&#45;&gt;4</title>
<path fill="none" stroke="black" d="M118.68,-65.44C130.16,-60.68 145.95,-54.12 159.22,-48.61"/>
<polygon fill="black" stroke="black" points="160.87,-51.72 168.76,-44.65 158.18,-45.25 160.87,-51.72"/>
<text text-anchor="middle" x="143.83" y="-60.8" font-family="Times,serif" font-size="14.00">b/0</text>
</g>
<!-- 2&#45;&gt;4 -->
<g id="edge5" class="edge">
<title>2&#45;&gt;4</title>
<path fill="none" stroke="black" d="M119.84,-16.22C129.64,-15.71 142.12,-15.96 152.78,-19 155.85,-19.88 158.93,-21.12 161.89,-22.56"/>
<polygon fill="black" stroke="black" points="160.42,-25.75 170.85,-27.61 163.86,-19.65 160.42,-25.75"/>
<text text-anchor="middle" x="143.83" y="-21.8" font-family="Times,serif" font-size="14.00">c/0</text>
</g>
<!-- 5 -->
<g id="node6" class="node">
<title>5</title>
<ellipse fill="none" stroke="black" cx="273.67" cy="-64" rx="18" ry="18"/>
<ellipse fill="none" stroke="black" cx="273.67" cy="-64" rx="22" ry="22"/>
<text text-anchor="middle" x="273.67" y="-59.8" font-family="Times,serif" font-size="14.00">5</text>
</g>
<!-- 3&#45;&gt;5 -->
<g id="edge6" class="edge">
<title>3&#45;&gt;5</title>
<path fill="none" stroke="black" d="M203.34,-86.6C214.53,-82.95 229.61,-78.04 242.86,-73.72"/>
<polygon fill="black" stroke="black" points="244.11,-76.99 252.53,-70.56 241.94,-70.34 244.11,-76.99"/>
<text text-anchor="middle" x="227.72" y="-83.8" font-family="Times,serif" font-size="14.00">b/0</text>
</g>
<!-- 4&#45;&gt;5 -->
<g id="edge7" class="edge">
<title>4&#45;&gt;5</title>
<path fill="none" stroke="black" d="M203.52,-41.95C213.25,-44.36 225.73,-47.61 236.67,-51 238.83,-51.67 241.06,-52.4 243.3,-53.15"/>
<polygon fill="black" stroke="black" points="242.38,-56.53 252.97,-56.52 244.68,-49.92 242.38,-56.53"/>
<text text-anchor="middle" x="227.72" y="-53.8" font-family="Times,serif" font-size="14.00">c/0</text>
</g>
</g>
</svg>
