<?xml version="1.0" encoding="UTF-8" standalone="no"?>
<!DOCTYPE svg PUBLIC "-//W3C//DTD SVG 1.1//EN"
 "http://www.w3.org/Graphics/SVG/1.1/DTD/svg11.dtd">
<!-- Generated by graphviz version 2.42.3 (20191010.1750)
 -->
<!-- Title: FST Pages: 1 -->
<svg width="240pt" height="52pt"
 viewBox="0.00 0.00 239.99 52.00" xmlns="http://www.w3.org/2000/svg" xmlns:xlink="http://www.w3.org/1999/xlink">
<g id="graph0" class="graph" transform="scale(1 1) rotate(0) translate(4 48)">
<title>FST</title>
<polygon fill="white" stroke="transparent" points="-4,4 -4,-48 235.99,-48 235.99,4 -4,4"/>
<!-- 0 -->
<g id="node1" class="node">
<title>0</title>
<ellipse fill="none" stroke="black" stroke-width="2" cx="18" cy="-22" rx="18" ry="18"/>
<text text-anchor="middle" x="18" y="-17.8" font-family="Times,serif" font-size="14.00">0</text>
</g>
<!-- 1 -->
<g id="node2" class="node">
<title>1</title>
<ellipse fill="none" stroke="black" cx="112.39" cy="-22" rx="18" ry="18"/>
<text text-anchor="middle" x="112.39" y="-17.8" font-family="Times,serif" font-size="14.00">1</text>
</g>
<!-- 0&#45;&gt;1 -->
<g id="edge1" class="edge">
<title>0&#45;&gt;1</title>
<path fill="none" stroke="black" d="M36.38,-22C49.8,-22 68.62,-22 84.06,-22"/>
<polygon fill="black" stroke="black" points="84.09,-25.5 94.09,-22 84.09,-18.5 84.09,-25.5"/>
<text text-anchor="middle" x="65.19" y="-24.8" font-family="Times,serif" font-size="14.00">b/3.2</text>
</g>
<!-- 2 -->
<g id="node3" class="node">
<title>2</title>
<ellipse fill="none" stroke="black" cx="209.99" cy="-22" rx="18" ry="18"/>
<ellipse fill="none" stroke="black" cx="209.99" cy="-22" rx="22" ry="22"/>
<text text-anchor="middle" x="209.99" y="-17.8" font-family="Times,serif" font-size="14.00">2</text>
</g>
<!-- 1&#45;&gt;2 -->
<g id="edge2" class="edge">
<title>1&#45;&gt;2</title>
<path fill="none" stroke="black" d="M130.48,-22C143.49,-22 161.75,-22 177.39,-22"/>
<polygon fill="black" stroke="black" points="177.7,-25.5 187.7,-22 177.7,-18.5 177.7,-25.5"/>
<text text-anchor="middle" x="159.19" y="-24.8" font-family="Times,serif" font-size="14.00">a/2.1</text>
</g>
</g>
</svg>
