<?xml version="1.0" encoding="UTF-8" standalone="no"?>
<!DOCTYPE svg PUBLIC "-//W3C//DTD SVG 1.1//EN"
 "http://www.w3.org/Graphics/SVG/1.1/DTD/svg11.dtd">
<!-- Generated by graphviz version 2.42.3 (20191010.1750)
 -->
<!-- Title: FST Pages: 1 -->
<svg width="219pt" height="52pt"
 viewBox="0.00 0.00 218.99 52.00" xmlns="http://www.w3.org/2000/svg" xmlns:xlink="http://www.w3.org/1999/xlink">
<g id="graph0" class="graph" transform="scale(1 1) rotate(0) translate(4 48)">
<title>FST</title>
<polygon fill="white" stroke="transparent" points="-4,4 -4,-48 214.99,-48 214.99,4 -4,4"/>
<!-- 0 -->
<g id="node1" class="node">
<title>0</title>
<ellipse fill="none" stroke="black" stroke-width="2" cx="18" cy="-22" rx="18" ry="18"/>
<text text-anchor="middle" x="18" y="-17.8" font-family="Times,serif" font-size="14.00">0</text>
</g>
<!-- 2 -->
<g id="node2" class="node">
<title>2</title>
<ellipse fill="none" stroke="black" cx="101.89" cy="-22" rx="18" ry="18"/>
<text text-anchor="middle" x="101.89" y="-17.8" font-family="Times,serif" font-size="14.00">2</text>
</g>
<!-- 0&#45;&gt;2 -->
<g id="edge1" class="edge">
<title>0&#45;&gt;2</title>
<path fill="none" stroke="black" d="M36.37,-22C47.19,-22 61.34,-22 73.64,-22"/>
<polygon fill="black" stroke="black" points="73.83,-25.5 83.83,-22 73.83,-18.5 73.83,-25.5"/>
<text text-anchor="middle" x="59.94" y="-24.8" font-family="Times,serif" font-size="14.00">a/0</text>
</g>
<!-- 0&#45;&gt;2 -->
<g id="edge2" class="edge">
<title>0&#45;&gt;2</title>
<path fill="none" stroke="black" d="M33.3,-11.89C38.6,-8.72 44.83,-5.62 51,-4 58.69,-1.99 61.2,-1.99 68.89,-4 71.78,-4.76 74.68,-5.84 77.5,-7.11"/>
<polygon fill="black" stroke="black" points="76.11,-10.33 86.59,-11.89 79.38,-4.14 76.11,-10.33"/>
<text text-anchor="middle" x="59.94" y="-6.8" font-family="Times,serif" font-size="14.00">b/0</text>
</g>
<!-- 1 -->
<g id="node3" class="node">
<title>1</title>
<ellipse fill="none" stroke="black" cx="188.99" cy="-22" rx="18" ry="18"/>
<ellipse fill="none" stroke="black" cx="188.99" cy="-22" rx="22" ry="22"/>
<text text-anchor="middle" x="188.99" y="-17.8" font-family="Times,serif" font-size="14.00">1</text>
</g>
<!-- 2&#45;&gt;1 -->
<g id="edge3" class="edge">
<title>2&#45;&gt;1</title>
<path fill="none" stroke="black" d="M120.11,-22C130.55,-22 144.2,-22 156.51,-22"/>
<polygon fill="black" stroke="black" points="156.88,-25.5 166.88,-22 156.88,-18.5 156.88,-25.5"/>
<text text-anchor="middle" x="143.44" y="-24.8" font-family="Times,serif" font-size="14.00">a/2</text>
</g>
</g>
</svg>
