<?xml version="1.0" encoding="UTF-8" standalone="no"?>
<!DOCTYPE svg PUBLIC "-//W3C//DTD SVG 1.1//EN"
 "http://www.w3.org/Graphics/SVG/1.1/DTD/svg11.dtd">
<!-- Generated by graphviz version 2.42.3 (20191010.1750)
 -->
<!-- Title: FST Pages: 1 -->
<svg width="304pt" height="62pt"
 viewBox="0.00 0.00 303.67 61.77" xmlns="http://www.w3.org/2000/svg" xmlns:xlink="http://www.w3.org/1999/xlink">
<g id="graph0" class="graph" transform="scale(1 1) rotate(0) translate(4 57.77)">
<title>FST</title>
<polygon fill="white" stroke="transparent" points="-4,4 -4,-57.77 299.67,-57.77 299.67,4 -4,4"/>
<!-- 0 -->
<g id="node1" class="node">
<title>0</title>
<ellipse fill="none" stroke="black" stroke-width="2" cx="18" cy="-23.77" rx="18" ry="18"/>
<text text-anchor="middle" x="18" y="-19.57" font-family="Times,serif" font-size="14.00">0</text>
</g>
<!-- 1 -->
<g id="node2" class="node">
<title>1</title>
<ellipse fill="none" stroke="black" cx="101.89" cy="-23.77" rx="18" ry="18"/>
<text text-anchor="middle" x="101.89" y="-19.57" font-family="Times,serif" font-size="14.00">1</text>
</g>
<!-- 0&#45;&gt;1 -->
<g id="edge1" class="edge">
<title>0&#45;&gt;1</title>
<path fill="none" stroke="black" d="M34.14,-32.52C39.31,-35.06 45.25,-37.49 51,-38.77 58.76,-40.5 61.13,-40.5 68.89,-38.77 71.4,-38.21 73.96,-37.43 76.46,-36.52"/>
<polygon fill="black" stroke="black" points="77.95,-39.69 85.75,-32.52 75.18,-33.26 77.95,-39.69"/>
<text text-anchor="middle" x="59.94" y="-42.57" font-family="Times,serif" font-size="14.00">a/0</text>
</g>
<!-- 0&#45;&gt;1 -->
<g id="edge2" class="edge">
<title>0&#45;&gt;1</title>
<path fill="none" stroke="black" d="M35.92,-21.88C40.78,-21.42 46.1,-21 51,-20.77 58.94,-20.4 60.95,-20.4 68.89,-20.77 70.42,-20.84 72,-20.93 73.58,-21.04"/>
<polygon fill="black" stroke="black" points="73.72,-24.56 83.97,-21.88 74.29,-17.58 73.72,-24.56"/>
<text text-anchor="middle" x="59.94" y="-23.57" font-family="Times,serif" font-size="14.00">b/0</text>
</g>
<!-- 0&#45;&gt;1 -->
<g id="edge3" class="edge">
<title>0&#45;&gt;1</title>
<path fill="none" stroke="black" d="M32.06,-12.14C37.52,-8.02 44.18,-3.89 51,-1.77 58.59,0.59 61.3,0.59 68.89,-1.77 72.52,-2.89 76.09,-4.59 79.47,-6.55"/>
<polygon fill="black" stroke="black" points="77.58,-9.49 87.83,-12.14 81.47,-3.67 77.58,-9.49"/>
<text text-anchor="middle" x="59.94" y="-4.57" font-family="Times,serif" font-size="14.00">c/0</text>
</g>
<!-- 2 -->
<g id="node3" class="node">
<title>2</title>
<ellipse fill="none" stroke="black" cx="185.78" cy="-23.77" rx="18" ry="18"/>
<text text-anchor="middle" x="185.78" y="-19.57" font-family="Times,serif" font-size="14.00">2</text>
</g>
<!-- 1&#45;&gt;2 -->
<g id="edge4" class="edge">
<title>1&#45;&gt;2</title>
<path fill="none" stroke="black" d="M118.03,-32.52C123.2,-35.06 129.14,-37.49 134.89,-38.77 142.65,-40.5 145.02,-40.5 152.78,-38.77 155.29,-38.21 157.85,-37.43 160.35,-36.52"/>
<polygon fill="black" stroke="black" points="161.84,-39.69 169.64,-32.52 159.07,-33.26 161.84,-39.69"/>
<text text-anchor="middle" x="143.83" y="-42.57" font-family="Times,serif" font-size="14.00">a/0</text>
</g>
<!-- 1&#45;&gt;2 -->
<g id="edge5" class="edge">
<title>1&#45;&gt;2</title>
<path fill="none" stroke="black" d="M119.81,-21.88C124.67,-21.42 129.98,-21 134.89,-20.77 142.83,-20.4 144.84,-20.4 152.78,-20.77 154.31,-20.84 155.88,-20.93 157.47,-21.04"/>
<polygon fill="black" stroke="black" points="157.61,-24.56 167.86,-21.88 158.18,-17.58 157.61,-24.56"/>
<text text-anchor="middle" x="143.83" y="-23.57" font-family="Times,serif" font-size="14.00">b/0</text>
</g>
<!-- 1&#45;&gt;2 -->
<g id="edge6" class="edge">
<title>1&#45;&gt;2</title>
<path fill="none" stroke="black" d="M115.94,-12.14C121.41,-8.02 128.06,-3.89 134.89,-1.77 142.48,0.59 145.19,0.59 152.78,-1.77 156.4,-2.89 159.98,-4.59 163.36,-6.55"/>
<polygon fill="black" stroke="black" points="161.47,-9.49 171.72,-12.14 165.36,-3.67 161.47,-9.49"/>
<text text-anchor="middle" x="143.83" y="-4.57" font-family="Times,serif" font-size="14.00">c/0</text>
</g>
<!-- 3 -->
<g id="node4" class="node">
<title>3</title>
<ellipse fill="none" stroke="black" cx="273.67" cy="-23.77" rx="18" ry="18"/>
<ellipse fill="none" stroke="black" cx="273.67" cy="-23.77" rx="22" ry="22"/>
<text text-anchor="middle" x="273.67" y="-19.57" font-family="Times,serif" font-size="14.00">3</text>
</g>
<!-- 2&#45;&gt;3 -->
<g id="edge7" class="edge">
<title>2&#45;&gt;3</title>
<path fill="none" stroke="black" d="M201.92,-32.52C207.09,-35.06 213.03,-37.49 218.78,-38.77 227.14,-40.63 236.13,-39.43 244.33,-37.06"/>
<polygon fill="black" stroke="black" points="245.57,-40.33 253.84,-33.71 243.24,-33.73 245.57,-40.33"/>
<text text-anchor="middle" x="227.72" y="-41.57" font-family="Times,serif" font-size="14.00">a/0</text>
</g>
<!-- 2&#45;&gt;3 -->
<g id="edge8" class="edge">
<title>2&#45;&gt;3</title>
<path fill="none" stroke="black" d="M203.7,-21.88C208.56,-21.42 213.87,-21 218.78,-20.77 226.16,-20.42 234.1,-20.58 241.57,-20.95"/>
<polygon fill="black" stroke="black" points="241.48,-24.45 251.69,-21.6 241.93,-17.47 241.48,-24.45"/>
<text text-anchor="middle" x="227.72" y="-23.57" font-family="Times,serif" font-size="14.00">b/0</text>
</g>
<!-- 2&#45;&gt;3 -->
<g id="edge9" class="edge">
<title>2&#45;&gt;3</title>
<path fill="none" stroke="black" d="M199.83,-12.14C205.3,-8.02 211.95,-3.89 218.78,-1.77 228.23,1.17 238.34,-1.37 247.22,-5.61"/>
<polygon fill="black" stroke="black" points="245.52,-8.67 255.95,-10.5 248.94,-2.56 245.52,-8.67"/>
<text text-anchor="middle" x="227.72" y="-4.57" font-family="Times,serif" font-size="14.00">c/0</text>
</g>
</g>
</svg>
