<?xml version="1.0" encoding="UTF-8" standalone="no"?>
<!DOCTYPE svg PUBLIC "-//W3C//DTD SVG 1.1//EN"
 "http://www.w3.org/Graphics/SVG/1.1/DTD/svg11.dtd">
<!-- Generated by graphviz version 2.42.3 (20191010.1750)
 -->
<!-- Title: FST Pages: 1 -->
<svg width="220pt" height="208pt"
 viewBox="0.00 0.00 219.78 208.00" xmlns="http://www.w3.org/2000/svg" xmlns:xlink="http://www.w3.org/1999/xlink">
<g id="graph0" class="graph" transform="scale(1 1) rotate(0) translate(4 204)">
<title>FST</title>
<polygon fill="white" stroke="transparent" points="-4,4 -4,-204 215.78,-204 215.78,4 -4,4"/>
<!-- 0 -->
<g id="node1" class="node">
<title>0</title>
<ellipse fill="none" stroke="black" stroke-width="2" cx="18" cy="-22" rx="18" ry="18"/>
<text text-anchor="middle" x="18" y="-17.8" font-family="Times,serif" font-size="14.00">0</text>
</g>
<!-- 1 -->
<g id="node2" class="node">
<title>1</title>
<ellipse fill="none" stroke="black" cx="101.89" cy="-22" rx="18" ry="18"/>
<text text-anchor="middle" x="101.89" y="-17.8" font-family="Times,serif" font-size="14.00">1</text>
</g>
<!-- 0&#45;&gt;1 -->
<g id="edge1" class="edge">
<title>0&#45;&gt;1</title>
<path fill="none" stroke="black" d="M36.37,-22C47.19,-22 61.34,-22 73.64,-22"/>
<polygon fill="black" stroke="black" points="73.83,-25.5 83.83,-22 73.83,-18.5 73.83,-25.5"/>
<text text-anchor="middle" x="59.94" y="-24.8" font-family="Times,serif" font-size="14.00">a/0</text>
</g>
<!-- 2 -->
<g id="node7" class="node">
<title>2</title>
<ellipse fill="none" stroke="black" cx="189.78" cy="-22" rx="18" ry="18"/>
<ellipse fill="none" stroke="black" cx="189.78" cy="-22" rx="22" ry="22"/>
<text text-anchor="middle" x="189.78" y="-17.8" font-family="Times,serif" font-size="14.00">2</text>
</g>
<!-- 1&#45;&gt;2 -->
<g id="edge4" class="edge">
<title>1&#45;&gt;2</title>
<path fill="none" stroke="black" d="M120.27,-22C130.92,-22 144.86,-22 157.38,-22"/>
<polygon fill="black" stroke="black" points="157.47,-25.5 167.47,-22 157.47,-18.5 157.47,-25.5"/>
<text text-anchor="middle" x="143.83" y="-24.8" font-family="Times,serif" font-size="14.00">b/0</text>
</g>
<!-- 3 -->
<g id="node3" class="node">
<title>3</title>
<ellipse fill="none" stroke="black" stroke-width="2" cx="18" cy="-116" rx="18" ry="18"/>
<text text-anchor="middle" x="18" y="-111.8" font-family="Times,serif" font-size="14.00">3</text>
</g>
<!-- 4 -->
<g id="node4" class="node">
<title>4</title>
<ellipse fill="none" stroke="black" cx="101.89" cy="-116" rx="18" ry="18"/>
<text text-anchor="middle" x="101.89" y="-111.8" font-family="Times,serif" font-size="14.00">4</text>
</g>
<!-- 3&#45;&gt;4 -->
<g id="edge2" class="edge">
<title>3&#45;&gt;4</title>
<path fill="none" stroke="black" d="M36.37,-116C47.19,-116 61.34,-116 73.64,-116"/>
<polygon fill="black" stroke="black" points="73.83,-119.5 83.83,-116 73.83,-112.5 73.83,-119.5"/>
<text text-anchor="middle" x="59.94" y="-118.8" font-family="Times,serif" font-size="14.00">b/0</text>
</g>
<!-- 5 -->
<g id="node8" class="node">
<title>5</title>
<ellipse fill="none" stroke="black" cx="189.78" cy="-116" rx="18" ry="18"/>
<ellipse fill="none" stroke="black" cx="189.78" cy="-116" rx="22" ry="22"/>
<text text-anchor="middle" x="189.78" y="-111.8" font-family="Times,serif" font-size="14.00">5</text>
</g>
<!-- 4&#45;&gt;5 -->
<g id="edge5" class="edge">
<title>4&#45;&gt;5</title>
<path fill="none" stroke="black" d="M120.27,-116C130.92,-116 144.86,-116 157.38,-116"/>
<polygon fill="black" stroke="black" points="157.47,-119.5 167.47,-116 157.47,-112.5 157.47,-119.5"/>
<text text-anchor="middle" x="143.83" y="-118.8" font-family="Times,serif" font-size="14.00">a/0</text>
</g>
<!-- 6 -->
<g id="node5" class="node">
<title>6</title>
<ellipse fill="none" stroke="black" stroke-width="2" cx="18" cy="-178" rx="18" ry="18"/>
<text text-anchor="middle" x="18" y="-173.8" font-family="Times,serif" font-size="14.00">6</text>
</g>
<!-- 7 -->
<g id="node6" class="node">
<title>7</title>
<ellipse fill="none" stroke="black" cx="101.89" cy="-178" rx="18" ry="18"/>
<text text-anchor="middle" x="101.89" y="-173.8" font-family="Times,serif" font-size="14.00">7</text>
</g>
<!-- 6&#45;&gt;7 -->
<g id="edge3" class="edge">
<title>6&#45;&gt;7</title>
<path fill="none" stroke="black" d="M36.37,-178C47.19,-178 61.34,-178 73.64,-178"/>
<polygon fill="black" stroke="black" points="73.83,-181.5 83.83,-178 73.83,-174.5 73.83,-181.5"/>
<text text-anchor="middle" x="59.94" y="-180.8" font-family="Times,serif" font-size="14.00">a/0</text>
</g>
<!-- 8 -->
<g id="node9" class="node">
<title>8</title>
<ellipse fill="none" stroke="black" cx="189.78" cy="-178" rx="18" ry="18"/>
<ellipse fill="none" stroke="black" cx="189.78" cy="-178" rx="22" ry="22"/>
<text text-anchor="middle" x="189.78" y="-173.8" font-family="Times,serif" font-size="14.00">8</text>
</g>
<!-- 7&#45;&gt;8 -->
<g id="edge6" class="edge">
<title>7&#45;&gt;8</title>
<path fill="none" stroke="black" d="M120.27,-178C130.92,-178 144.86,-178 157.38,-178"/>
<polygon fill="black" stroke="black" points="157.47,-181.5 167.47,-178 157.47,-174.5 157.47,-181.5"/>
<text text-anchor="middle" x="143.83" y="-180.8" font-family="Times,serif" font-size="14.00">c/0</text>
</g>
<!-- 2&#45;&gt;2 -->
<g id="edge7" class="edge">
<title>2&#45;&gt;2</title>
<path fill="none" stroke="black" d="M181.77,-42.58C180.67,-52.84 183.33,-62 189.78,-62 193.91,-62 196.49,-58.24 197.52,-52.84"/>
<polygon fill="black" stroke="black" points="201.02,-52.67 197.79,-42.58 194.02,-52.49 201.02,-52.67"/>
<text text-anchor="middle" x="189.78" y="-64.8" font-family="Times,serif" font-size="14.00">a/0</text>
</g>
</g>
</svg>
