<?xml version="1.0" encoding="UTF-8" standalone="no"?>
<!DOCTYPE svg PUBLIC "-//W3C//DTD SVG 1.1//EN"
 "http://www.w3.org/Graphics/SVG/1.1/DTD/svg11.dtd">
<!-- Generated by graphviz version 2.42.3 (20191010.1750)
 -->
<!-- Title: FST Pages: 1 -->
<svg width="336pt" height="64pt"
 viewBox="0.00 0.00 335.55 63.85" xmlns="http://www.w3.org/2000/svg" xmlns:xlink="http://www.w3.org/1999/xlink">
<g id="graph0" class="graph" transform="scale(1 1) rotate(0) translate(4 59.85)">
<title>FST</title>
<polygon fill="white" stroke="transparent" points="-4,4 -4,-59.85 331.55,-59.85 331.55,4 -4,4"/>
<!-- 0 -->
<g id="node1" class="node">
<title>0</title>
<ellipse fill="none" stroke="black" stroke-width="2" cx="18" cy="-24.85" rx="18" ry="18"/>
<text text-anchor="middle" x="18" y="-20.65" font-family="Times,serif" font-size="14.00">0</text>
</g>
<!-- 1 -->
<g id="node2" class="node">
<title>1</title>
<ellipse fill="none" stroke="black" cx="112.78" cy="-24.85" rx="18" ry="18"/>
<text text-anchor="middle" x="112.78" y="-20.65" font-family="Times,serif" font-size="14.00">1</text>
</g>
<!-- 0&#45;&gt;1 -->
<g id="edge1" class="edge">
<title>0&#45;&gt;1</title>
<path fill="none" stroke="black" d="M34.14,-33.6C39.31,-36.14 45.25,-38.56 51,-39.85 63.48,-42.63 67.29,-42.63 79.78,-39.85 82.29,-39.29 84.85,-38.5 87.35,-37.59"/>
<polygon fill="black" stroke="black" points="88.84,-40.76 96.64,-33.6 86.07,-34.33 88.84,-40.76"/>
<text text-anchor="middle" x="65.39" y="-44.65" font-family="Times,serif" font-size="14.00">x:a/0</text>
</g>
<!-- 0&#45;&gt;1 -->
<g id="edge2" class="edge">
<title>0&#45;&gt;1</title>
<path fill="none" stroke="black" d="M35.92,-22.96C40.78,-22.5 46.1,-22.07 51,-21.85 63.78,-21.25 67,-21.25 79.78,-21.85 81.31,-21.92 82.88,-22.01 84.47,-22.11"/>
<polygon fill="black" stroke="black" points="84.61,-25.64 94.86,-22.96 85.18,-18.66 84.61,-25.64"/>
<text text-anchor="middle" x="65.39" y="-24.65" font-family="Times,serif" font-size="14.00">x:b/0</text>
</g>
<!-- 0&#45;&gt;1 -->
<g id="edge3" class="edge">
<title>0&#45;&gt;1</title>
<path fill="none" stroke="black" d="M32.06,-13.22C37.52,-9.1 44.18,-4.97 51,-2.85 63.22,0.95 67.56,0.95 79.78,-2.85 83.4,-3.97 86.98,-5.67 90.36,-7.63"/>
<polygon fill="black" stroke="black" points="88.47,-10.57 98.72,-13.22 92.36,-4.75 88.47,-10.57"/>
<text text-anchor="middle" x="65.39" y="-5.65" font-family="Times,serif" font-size="14.00">y:c/0</text>
</g>
<!-- 2 -->
<g id="node3" class="node">
<title>2</title>
<ellipse fill="none" stroke="black" cx="207.56" cy="-24.85" rx="18" ry="18"/>
<text text-anchor="middle" x="207.56" y="-20.65" font-family="Times,serif" font-size="14.00">2</text>
</g>
<!-- 1&#45;&gt;2 -->
<g id="edge4" class="edge">
<title>1&#45;&gt;2</title>
<path fill="none" stroke="black" d="M128.92,-33.6C134.09,-36.14 140.03,-38.56 145.78,-39.85 158.26,-42.63 162.07,-42.63 174.56,-39.85 177.07,-39.29 179.63,-38.5 182.13,-37.59"/>
<polygon fill="black" stroke="black" points="183.62,-40.76 191.42,-33.6 180.85,-34.33 183.62,-40.76"/>
<text text-anchor="middle" x="160.17" y="-44.65" font-family="Times,serif" font-size="14.00">x:a/0</text>
</g>
<!-- 1&#45;&gt;2 -->
<g id="edge5" class="edge">
<title>1&#45;&gt;2</title>
<path fill="none" stroke="black" d="M130.7,-22.96C135.56,-22.5 140.87,-22.07 145.78,-21.85 158.56,-21.25 161.78,-21.25 174.56,-21.85 176.09,-21.92 177.66,-22.01 179.25,-22.11"/>
<polygon fill="black" stroke="black" points="179.39,-25.64 189.64,-22.96 179.96,-18.66 179.39,-25.64"/>
<text text-anchor="middle" x="160.17" y="-24.65" font-family="Times,serif" font-size="14.00">y:b/0</text>
</g>
<!-- 1&#45;&gt;2 -->
<g id="edge6" class="edge">
<title>1&#45;&gt;2</title>
<path fill="none" stroke="black" d="M126.83,-13.22C132.3,-9.1 138.95,-4.97 145.78,-2.85 157.99,0.95 162.34,0.95 174.56,-2.85 178.18,-3.97 181.76,-5.67 185.14,-7.63"/>
<polygon fill="black" stroke="black" points="183.25,-10.57 193.5,-13.22 187.14,-4.75 183.25,-10.57"/>
<text text-anchor="middle" x="160.17" y="-5.65" font-family="Times,serif" font-size="14.00">z:c/0</text>
</g>
<!-- 3 -->
<g id="node4" class="node">
<title>3</title>
<ellipse fill="none" stroke="black" cx="305.55" cy="-24.85" rx="18" ry="18"/>
<ellipse fill="none" stroke="black" cx="305.55" cy="-24.85" rx="22" ry="22"/>
<text text-anchor="middle" x="305.55" y="-20.65" font-family="Times,serif" font-size="14.00">3</text>
</g>
<!-- 2&#45;&gt;3 -->
<g id="edge7" class="edge">
<title>2&#45;&gt;3</title>
<path fill="none" stroke="black" d="M223.7,-33.6C228.87,-36.14 234.81,-38.56 240.56,-39.85 252.7,-42.55 256.35,-42.29 268.55,-39.85 271.05,-39.35 273.59,-38.67 276.11,-37.88"/>
<polygon fill="black" stroke="black" points="277.39,-41.14 285.56,-34.39 274.97,-34.57 277.39,-41.14"/>
<text text-anchor="middle" x="254.56" y="-43.65" font-family="Times,serif" font-size="14.00">y:a/0</text>
</g>
<!-- 2&#45;&gt;3 -->
<g id="edge8" class="edge">
<title>2&#45;&gt;3</title>
<path fill="none" stroke="black" d="M225.48,-22.96C230.34,-22.5 235.65,-22.07 240.56,-21.85 252.99,-21.26 256.12,-21.33 268.55,-21.85 270.08,-21.91 271.64,-21.99 273.22,-22.08"/>
<polygon fill="black" stroke="black" points="273.41,-25.6 283.63,-22.81 273.9,-18.62 273.41,-25.6"/>
<text text-anchor="middle" x="254.56" y="-24.65" font-family="Times,serif" font-size="14.00">z:b/0</text>
</g>
<!-- 2&#45;&gt;3 -->
<g id="edge9" class="edge">
<title>2&#45;&gt;3</title>
<path fill="none" stroke="black" d="M221.61,-13.22C227.07,-9.1 233.73,-4.97 240.56,-2.85 252.44,0.84 256.58,0.52 268.55,-2.85 271.97,-3.81 275.38,-5.19 278.67,-6.81"/>
<polygon fill="black" stroke="black" points="277.08,-9.93 287.51,-11.81 280.53,-3.84 277.08,-9.93"/>
<text text-anchor="middle" x="254.56" y="-5.65" font-family="Times,serif" font-size="14.00">z:c/0</text>
</g>
</g>
</svg>
