<?xml version="1.0" encoding="UTF-8" standalone="no"?>
<!DOCTYPE svg PUBLIC "-//W3C//DTD SVG 1.1//EN"
 "http://www.w3.org/Graphics/SVG/1.1/DTD/svg11.dtd">
<!-- Generated by graphviz version 2.42.3 (20191010.1750)
 -->
<!-- Title: FST Pages: 1 -->
<svg width="147pt" height="84pt"
 viewBox="0.00 0.00 146.78 84.00" xmlns="http://www.w3.org/2000/svg" xmlns:xlink="http://www.w3.org/1999/xlink">
<g id="graph0" class="graph" transform="scale(1 1) rotate(0) translate(4 80)">
<title>FST</title>
<polygon fill="white" stroke="transparent" points="-4,4 -4,-80 142.78,-80 142.78,4 -4,4"/>
<!-- 0 -->
<g id="node1" class="node">
<title>0</title>
<ellipse fill="none" stroke="black" stroke-width="2" cx="18" cy="-22" rx="18" ry="18"/>
<text text-anchor="middle" x="18" y="-17.8" font-family="Times,serif" font-size="14.00">0</text>
</g>
<!-- 0&#45;&gt;0 -->
<g id="edge1" class="edge">
<title>0&#45;&gt;0</title>
<path fill="none" stroke="black" d="M9.98,-38.29C8.05,-48.39 10.72,-58 18,-58 22.66,-58 25.43,-54.06 26.32,-48.57"/>
<polygon fill="black" stroke="black" points="29.81,-48.18 26.02,-38.29 22.81,-48.39 29.81,-48.18"/>
<text text-anchor="middle" x="18" y="-60.8" font-family="Times,serif" font-size="14.00">a:x/0</text>
</g>
<!-- 1 -->
<g id="node2" class="node">
<title>1</title>
<ellipse fill="none" stroke="black" cx="116.78" cy="-22" rx="18" ry="18"/>
<ellipse fill="none" stroke="black" cx="116.78" cy="-22" rx="22" ry="22"/>
<text text-anchor="middle" x="116.78" y="-17.8" font-family="Times,serif" font-size="14.00">1</text>
</g>
<!-- 0&#45;&gt;1 -->
<g id="edge2" class="edge">
<title>0&#45;&gt;1</title>
<path fill="none" stroke="black" d="M36.3,-22C49.68,-22 68.56,-22 84.56,-22"/>
<polygon fill="black" stroke="black" points="84.57,-25.5 94.57,-22 84.57,-18.5 84.57,-25.5"/>
<text text-anchor="middle" x="65.39" y="-24.8" font-family="Times,serif" font-size="14.00">b:y/0</text>
</g>
<!-- 1&#45;&gt;1 -->
<g id="edge3" class="edge">
<title>1&#45;&gt;1</title>
<path fill="none" stroke="black" d="M107.73,-42.17C106.34,-52.6 109.36,-62 116.78,-62 121.65,-62 124.62,-57.95 125.7,-52.22"/>
<polygon fill="black" stroke="black" points="129.2,-52.21 125.82,-42.17 122.2,-52.12 129.2,-52.21"/>
<text text-anchor="middle" x="116.78" y="-64.8" font-family="Times,serif" font-size="14.00">c:z/0</text>
</g>
</g>
</svg>
